<?xml version="1.0" encoding="utf-8"?>
<!-- Generator: Adobe Illustrator 25.2.1, SVG Export Plug-In . SVG Version: 6.00 Build 0)  -->
<svg version="1.1" id="Layer_1" xmlns="http://www.w3.org/2000/svg" xmlns:xlink="http://www.w3.org/1999/xlink" x="0px" y="0px"
	 viewBox="0 0 125 23.9" style="enable-background:new 0 0 125 23.9;" xml:space="preserve">
<style type="text/css">
	.st0{fill:#E3001D;}
	.st1{fill:#FFFFFF;}
	.st2{fill:#F5F5F7;}
</style>
<g id="Gruppe_125" transform="translate(-12.097 -11.437)">
	<g id="Gruppe_127" transform="translate(12.097 11.437)">
		<g id="Gruppe_125-2" transform="translate(0 1.95)">
			<path id="Pfad_121" class="st0" d="M16.2,15.5c-0.9,1.2-2.3,1.9-3.8,2c-3.1,0-2.6-5.7-1.2-9.6c-0.8,1.3-3.5,5.7-3.5,8.8
				c0,0.2-0.1,0.2-0.2,0.2c-2.1,0-3.3-2.1-3.3-3.9c0-3.8,1.8-9,3.1-9c0.4,0,3.2,1.1,2.5,1.9c-1.2,1.6-2,3.4-2.3,5.4
				c0.2-0.8,3.5-7.3,6.1-7.3c0.4,0,3.2,1.1,2.5,1.9c-1.6,1.8-3.8,8-2.1,8c0.5,0,1.1-0.6,1.7-1.3c0-0.1,0-0.1,0-0.2
				c0.1-3.2,1.6-6.2,4.1-8.3C16-0.6,9.1-1.4,4.3,2.3S-1.3,13,2.4,17.8s10.7,5.6,15.4,1.9c0.4-0.3,0.8-0.6,1.1-1
				C17.7,18,16.7,16.8,16.2,15.5z"/>
			<path id="Pfad_122" class="st1" d="M16.2,15.5c-0.3-0.9-0.5-1.8-0.5-2.8l0,0C15.7,13.7,15.8,14.6,16.2,15.5L16.2,15.5z"/>
			<path id="Pfad_123" class="st1" d="M14,14c-1.8,0,0.5-6.2,2.1-8c0.7-0.8-2-1.9-2.5-1.9c-2.6,0-5.9,6.5-6.1,7.3
				c0.3-2,1.1-3.8,2.3-5.4c0.7-0.8-2-1.9-2.5-1.9c-1.2,0-3.1,5.2-3.1,8.9c0,1.8,1.2,3.9,3.3,3.9c0.1,0,0.2-0.1,0.2-0.2
				c0-3.1,2.7-7.5,3.5-8.8c-1.4,3.9-2,9.6,1.2,9.6c1.5-0.1,2.9-0.8,3.8-2c-0.3-0.9-0.5-1.8-0.5-2.7C15.1,13.4,14.5,14,14,14z"/>
		</g>
		<g id="Gruppe_126" transform="translate(17.344)">
			<path id="Pfad_124" class="st2" d="M16.8,19.3c1,0,2.1-1.2,2.6-2.2c0.3,1.2,0.9,2.2,1.7,2.2c0.1,0,0.2,0,0.2,0
				c1.4,0,2.6-1.1,3.6-2.1c0.6-0.7,1.2-1.5,1.6-2.4c0.3-0.6,0.5-1.2,0.7-1.7c0.3-0.9,0.4-1.7-0.4-1.7c-0.5,0-3.2,4.5-4.1,4.5
				c-1.7,0,0.8-6.2,2.9-10.3c0.2,0,0.4,0,0.6,0c0.8-0.1,1.6,0.1,2.3,0.6c0.4,0,0.5-2.1-1.6-2.7c0.2-0.5,0.5-1,0.9-1.4
				c0.7-0.8-2-2-2.5-2c-0.5,0-1.5,1.4-2.6,3.6c-0.4,0.1-0.9,0.1-1.3,0.1c-2.2,0-1.9-1.1-2.3-1.1c-0.4,0-1.3,3.3,2.4,3.3
				c0.1,0,0.1,0,0.2,0c-1.3,3.2-2.5,7.1-2.5,9.8c0,0.1,0,0.2,0,0.3c-0.2,0.3-0.5,0.4-0.8,0.4c-1.3,0-2.4-2.2-3.6-4.6
				c1.7-2.5,3.9-4.6,5.4-4.6c1.1,0-1.3-1.3-2.3-1.3c-1.4,0-3,1.3-4.4,3.1C12.6,7.3,11.8,6,10.9,6c-0.7,0.2-1.4,0.6-1.8,1.2
				C8.9,6.4,8.3,5.9,7,5.9c-2.6,0-7,3.7-7,8.5c0,3.4,2.1,4.9,3.6,5c0.1,0,0.1,0,0.2,0c4.4,0,7.7-7,5.5-7c-0.7,0-1.2,3.4-4.3,3.4
				c-1.2,0-1.5-0.9-1.4-2.2c2.1,0,5.7-3.3,5.7-5.4c0-0.1,0-0.1,0-0.2c0.1,0,0.2,0,0.2,0c0.8,0,1.6,1.6,2.4,3.6
				c-1.7,2.9-2.7,6.1-1.9,7c0.4,0.5,1.1,0.9,1.8,0.9c0.6,0,1-0.3,0.8-0.5c-0.7-0.7-0.3-2.4,0.6-4.3C14.1,17.1,15.3,19.3,16.8,19.3z
				 M4.3,11.1c0.8-1.9,2.2-3.5,3.3-3.5C8.8,7.5,7.2,10.2,4.3,11.1z"/>
			<path id="Pfad_125" class="st2" d="M28.9,17.4c-0.8-0.4-1.7-0.1-2.1,0.7c-0.6,0.9-0.6,1.8,0,2.2s1.5,0.1,2.1-0.7
				C29.5,18.8,29.5,17.8,28.9,17.4z"/>
			<path id="Pfad_126" class="st2" d="M71.6,5.3c0.8,0.5,2,0.1,2.8-1c0.8-1.1,0.8-2.4,0-3c-0.8-0.6-2-0.1-2.8,1
				C70.9,3.4,70.9,4.8,71.6,5.3z"/>
			<path id="Pfad_127" class="st2" d="M98.7,11.4c-0.6,0-2.9,4.5-4.3,4.5c-1.8,0,0.5-6.2,2.1-8C97.3,7.1,94.5,6,94,6
				c-2.6,0-5.9,6.5-6.1,7.3c0.3-2,1.1-3.8,2.3-5.4C91,7.1,88.2,6,87.8,6c-0.9,0-2.2,2.9-2.8,6c-0.5,0.9-1.3,1.6-2.1,2.1
				c1.8-4.6,0.1-8.1-2.5-8.1c-1.9,0-3.8,1.5-3.8,2.3c-1.2,1-2.1,2.3-2.6,3.8c-0.9,1-2.6,4-3.7,4c-1.8,0,0.5-6,2-7.8
				c0.7-0.7-1.9-1.9-2.4-1.9c-0.9,0-2.1,2.6-2.9,5.5c-1,1.1-2.9,4-3.6,4c-1.7,0,0.8-6.2,2.9-10.3c2.4-0.1,2.6,0.6,2.8,0.6
				c0.4,0,0.5-2.1-1.6-2.7c0.2-0.5,0.5-1,0.9-1.4c0.7-0.8-2-2.1-2.5-2.1c-0.5,0-1.5,1.4-2.6,3.6c-3.7,0.5-3.2-1-3.6-1
				S58.5,6,62.3,5.9c-0.8,2-1.5,4.1-2,6.2c-0.5,0.8-1.2,1.4-2,1.9c1.8-4.6,0.1-8.1-2.5-8.1c-1.9,0-3.8,1.5-3.8,2.3
				c-1.4,1.2-2.4,2.8-2.8,4.6c-1,1.3-2.2,3.2-3.1,3.2c-1.8,0,0.5-6.2,2.1-8c0.7-0.8-2-1.9-2.5-1.9c-2.7,0-5.1,5.1-5.9,6.8
				c0.2-1.8,0.9-3.5,1.9-4.9C42.5,7.1,40.1,6,39.7,6c-2.6,0-5.9,6.5-6.1,7.3c0.3-2,1.1-3.8,2.3-5.4c0.7-0.8-2-1.9-2.4-1.9
				c-1.3,0-3.1,5.2-3.1,9c0,1.8,1.2,3.9,3.3,3.9c0.1,0,0.2-0.1,0.2-0.2v0c0.2-2.1,0.8-4.2,1.9-6c0.6-1.1,1.2-2.2,1.9-3.3l0,0
				c-0.6,1.8-0.9,3.7-1,5.6c0,1.8,1.2,3.9,3.3,3.9c0.2,0,0.2-0.2,0.2-0.5c0-3.1,2.6-7.3,3.4-8.6c-1.4,4-2,9.7,1.1,9.7
				c1.6-0.1,3.1-0.9,4-2.2c0.1-0.2,0.3-0.3,0.4-0.5c0.3,1.8,2,3,3.8,2.7c1.3-0.2,2.5-0.8,3.4-1.7c1.1,0.4,2.4,0.1,3.8-1.5
				c0.1,1.5,0.8,3.2,1.9,3.3c1.5,0.1,2.8-1,3.8-2.1c0.3-0.4,0.6-0.8,0.9-1.2c0,1.9,0.6,3.3,2.2,3.3c1.6-0.1,3-0.9,3.9-2.2
				c0.3-0.3,0.5-0.7,0.8-1c0.1,1.8,1.6,3.3,3.5,3.2c0.1,0,0.3,0,0.4,0c1.3-0.2,2.5-0.8,3.4-1.7c1.2,0.5,2.6,0,4.2-2
				c0.1,1.7,1.5,3,3.2,3.1c0.1,0,0.2-0.1,0.2-0.2c0-3.1,2.7-7.5,3.5-8.8c-1.4,4-2,9.6,1.2,9.6c1.6-0.1,3.1-0.9,4-2.2
				c0.6-0.7,1.1-1.4,1.5-2.2c0.3-0.6,0.5-1.2,0.7-1.7C99.4,12.3,99.4,11.4,98.7,11.4z M52.8,16.9c-2,0-1.3-4.1-0.4-5.5
				c0.3,1.8,1,3.4,2,4.9C53.9,16.7,53.4,16.9,52.8,16.9z M56.2,13.9c-2-1.5-2.7-6.4-1.7-6.3C57,7.6,57.3,11.2,56.2,13.9L56.2,13.9z
				 M77.3,16.9c-2,0-1.3-4.1-0.4-5.5c0.3,1.8,1,3.4,2,4.9C78.5,16.7,77.9,16.9,77.3,16.9z M80.7,13.9c-2-1.5-2.7-6.4-1.7-6.3
				C81.5,7.6,81.8,11.2,80.7,13.9L80.7,13.9z"/>
			<path id="Pfad_128" class="st2" d="M105.3,0.9c-1.6,0-4.8,7.2-4.8,11.6c0,3.1,4,3.7,3.1,2.8c-1.3-1.3,2.1-10.6,4-12.5
				C108.1,2.1,106,0.9,105.3,0.9z"/>
			<path id="Pfad_129" class="st2" d="M101,15.9c-0.6,0.1-1,0.9-0.9,2.3c0.2,2.4,3.6,1.7,3.1,1.4c-0.3-0.2-0.1-1.6,0.4-2.2
				C104.2,16.8,101.8,15.9,101,15.9z"/>
		</g>
	</g>
</g>
</svg>
