<?xml version="1.0" encoding="UTF-8" standalone="no"?>
<!-- Created with Inkscape (http://www.inkscape.org/) -->

<svg
   version="1.1"
   id="svg2"
   width="280"
   height="400"
   viewBox="0 0 279.99999 399.99999"
   xmlns="http://www.w3.org/2000/svg"
   xmlns:svg="http://www.w3.org/2000/svg">
  <defs
     id="defs6">
    <clipPath
       clipPathUnits="userSpaceOnUse"
       id="clipPath18">
      <path
         d="M 0,2000 H 2000 V 0 H 0 Z"
         id="path16" />
    </clipPath>
  </defs>
  <g
     id="g10"
     transform="matrix(1.3333333,0,0,-1.3333333,0,2666.6667)">
    <g
       id="g12"
       transform="matrix(0.28106893,0,0,0.28106893,-176.09579,1568.7783)">
      <g
         id="g14"
         clip-path="url(#clipPath18)">
        <g
           id="g20"
           transform="translate(965.8806,1350.443)"
           style="fill:#ffffff">
          <path
             d="m 0,0 c 9.508,48.605 62.767,74.971 107.995,54.791 l 11.258,-5.027 c 20.222,-9.02 43.323,-9.02 63.543,0 l 11.21,5.002 c 45.889,20.477 99.296,-7.078 108.375,-56.501 1.663,-9.058 2.53,-18.394 2.53,-27.933 0,-83.171 -65.976,-150.928 -148.448,-153.792 -5.456,-0.19 -10.983,-0.097 -16.569,0.296 -1.91,0.134 -3.806,0.328 -5.698,0.534 -42.19,4.572 -79.475,26.504 -104.463,58.454 -5.809,7.428 -10.957,15.39 -15.343,23.807 -2.692,5.167 -5.076,10.513 -7.176,15.996 -0.381,0.997 -0.769,1.988 -1.131,2.994 -0.7,1.953 -1.374,3.919 -1.996,5.906 -0.021,0.067 -0.038,0.136 -0.059,0.203 -0.341,1.092 -0.64,2.202 -0.957,3.304 -1.163,4.054 -2.163,8.171 -2.99,12.35 -1.177,5.944 -2.042,11.994 -2.502,18.155 C -3.485,-27.185 -2.599,-13.286 0,0 m 7.466,-601.213 v 413.634 c 7.005,-6.371 14.459,-12.249 22.267,-17.653 v -377.244 c 3.884,3.581 7.684,7.253 11.39,11.021 57.536,58.53 93.072,139.099 93.073,227.472 v 91.048 c -6.47,1.309 -12.847,2.882 -19.095,4.774 -19.283,5.777 -37.391,14.255 -53.955,24.929 22.5,-10.465 47.122,-17.102 73.05,-19.126 5.56,-0.434 11.159,-0.722 16.83,-0.722 1.823,0 3.625,0.091 5.437,0.137 115.343,2.894 207.975,97.232 207.975,213.275 0,117.864 -95.549,213.413 -213.412,213.413 -117.866,0 -221.653,-95.549 -221.653,-213.413 v -179.383 -378.593 -57.553 c 16.388,6.361 32.126,14.056 47.085,22.965 10.753,6.402 21.106,13.421 31.008,21.019"
             style="fill:#ffffff;fill-opacity:1;fill-rule:nonzero;stroke:none"
             id="path22" />
        </g>
        <g
           id="g24"
           transform="translate(872.9867,1120.491)"
           style="fill:#ffffff">
          <path
             d="m 0,0 c -51.248,-53.249 -82.78,-125.618 -82.78,-205.365 v -230.903 c 28.716,0.723 56.461,5.35 82.78,13.336 z"
             style="fill:#ffffff;fill-opacity:1;fill-rule:nonzero;stroke:none"
             id="path26" />
        </g>
        <g
           id="g28"
           transform="translate(1139.7426,621.5673)"
           style="fill:#ffffff">
          <path
             d="m 0,0 h -42.665 v 82.768 c 14.882,11.3 29.131,23.387 42.665,36.226 z m -83.488,0 h -84.601 v 12.995 c 29.634,11.338 57.934,25.362 84.601,41.79 z M 40.823,0 v 162.544 c 73.412,88.078 117.596,201.374 117.596,324.998 v 51.587 C 119.487,497.599 64.116,471.697 2.733,471.697 c -6.794,0 -13.502,0.35 -20.132,0.969 v -87.773 c 0.001,-94.402 -37.988,-180.571 -99.462,-243.084 -20.224,-20.577 -43.025,-38.585 -67.852,-53.515 -24.617,-14.803 -51.226,-26.578 -79.341,-34.749 -27.245,-7.919 -55.896,-12.463 -85.482,-13.158 V 0 h -164.025 v -40.824 h 228.452 l -25.401,-113.844 h 142.421 V -40.824 H 234.267 V 0 Z"
             style="fill:#ffffff;fill-opacity:1;fill-rule:nonzero;stroke:none"
             id="path30" />
        </g>
        <g
           id="g32"
           transform="translate(1199.6654,1327.7085)"
           style="fill:#ffffff">
          <path
             d="m 0,0 v 13.909 h -13.909 c -24.196,0 -43.81,-19.614 -43.81,-43.809 v -13.91 -61.894 L -30.37,-41.69 C -12.754,-36.013 0,-19.504 0,0"
             style="fill:#ffffff;fill-opacity:1;fill-rule:nonzero;stroke:none"
             id="path34" />
        </g>
        <g
           id="g36"
           transform="translate(1090.5887,1283.8983)"
           style="fill:#ffffff">
          <path
             d="m 0,0 h 13.912 v 13.91 c 0,24.195 -19.617,43.81 -43.812,43.81 H -43.811 V 43.81 C -43.811,19.615 -24.197,0 0,0"
             style="fill:#ffffff;fill-opacity:1;fill-rule:nonzero;stroke:none"
             id="path38" />
        </g>
      </g>
    </g>
  </g>
</svg>
